<svg class="_2rWrR" preserveAspectRatio="xMidYMid meet" viewBox="0 0 52 64" style="fill: currentcolor;"><path fill="currentColor" d="M50.52 11.25c-.07-.27-.13-.36-.26-.4L45.5 9.58l-.66-2.71c-.03-.13-.07-.23-.2-.26l-4.88-1.32-.6-2.58a.36.36 0 00-.26-.33L26.2.03a1.7 1.7 0 00-.62 0l-12.7 2.35a.36.36 0 00-.26.33l-.6 2.58L7.14 6.6c-.13.03-.17.13-.2.26l-.66 2.7-4.75 1.28c-.13.04-.2.13-.26.4-.4 2.1-.6 4.25-.6 6.4 0 19.02 9.9 35.52 24.7 45.36.15.13.33.22.52.27.2-.05.38-.14.53-.27 14.79-9.84 24.7-26.34 24.7-45.36 0-2.15-.2-4.3-.6-6.4z"></path><path fill="#000" d="M24.04 54.28c0 .13-.13.2-.26.07-3.63-4.16-6.07-9.24-7.72-14.8l-2.51 1.58c-.66.45-1.19.26-1.59-.47-3.36-5.94-5.54-15.7-5.74-22.57 0-.32.11-.62.33-.85.9-1.08 1.86-2.1 2.9-3.04.19-.2.39-.07.39.26 0 8.45 1.45 16.3 3.76 21.45.2.4.4.4.66.2l.73-.46C13.6 29.51 12.8 21.33 13 11.88c0-.33.06-.46.26-.6a23.1 23.1 0 013.17-1.64c.33-.13.4-.07.4.2-.2 13.72.92 23.23 3.36 30.82.07.2.27.14.27-.06-.14-2.78-.14-5.22-.14-8.19l-.13-23.7c0-.26.07-.4.33-.46 1.09-.27 2.2-.47 3.3-.6.06 0 .11.02.15.06.04.04.06.09.05.15l.01 46.42zm3.9-46.62a.17.17 0 00-.2.2v46.42c0 .13.13.2.26.07v-.02c12.43-11.48 16.18-20 16.18-25.16 0-2.9-1.13-5.08-4.03-5.87a8.97 8.97 0 002.31-6c0-5.35-5.67-9.05-14.52-9.64zm3.56 4.35c4.03.27 7.07 2.45 7.07 5.09 0 2.77-1.96 5.74-7.07 8.7V12zM38.04 27c1.25 0 2.11 1.06 2.11 2.9 0 2.65-1.91 7.8-8.65 15.32V30.3c3.9-2.77 5.15-3.3 6.54-3.3z"></path></svg>